# xmcd CD database file
#
# Track frame offsets:
#	150
#	23053
#	38512
#	59676
#	69638
#	81319
#	88543
#	108400
#	122686
#	137624
#	154917
#	168803
#	184782
#	206397
#	219468
#	230618
#	251270
#	274379
#
# Disc length: 3904 seconds
#
# Revision: 1
# Processed by: cddbd v1.5.2PL0 Copyright (c) Steve Scherf et al.
# Submitted via: CDex 1.70beta2
#
DISCID=f70f3e12
DTITLE=Renaud Garcia-Fons - Méditerrannées
DYEAR=2010
DGENRE=Jazz
TTITLE0=Aljamiado
TTITLE1=Luces de Lorca
TTITLE2=Fortaleza
TTITLE3=Los Secretos
TTITLE4=Las Ramblas
TTITLE5=La Demoiselle de Céret
TTITLE6=Camp d'Argeles
TTITLE7=La Strada
TTITLE8=Romsarom
TTITLE9=Iraklio
TTITLE10=Dalmatia
TTITLE11=Mythologie
TTITLE12=Bosphore
TTITLE13=Bekaa
TTITLE14=Hmar Nadir
TTITLE15=Sinaï
TTITLE16=Safran
TTITLE17=Poussière de Ksar
EXTD=YEAR: 2010
EXTT0=
EXTT1=
EXTT2=
EXTT3=
EXTT4=
EXTT5=
EXTT6=
EXTT7=
EXTT8=
EXTT9=
EXTT10=
EXTT11=
EXTT12=
EXTT13=
EXTT14=
EXTT15=
EXTT16=
EXTT17=
PLAYORDER=
